# This file uses centimeters as units for non-parametric coordinates.

mtllib moon.mtl
g default
v 0.850651 0.000000 -0.525731
v 0.850651 -0.000000 0.525731
v -0.850651 -0.000000 0.525731
v -0.850651 0.000000 -0.525731
v 0.000000 -0.525731 0.850651
v 0.000000 0.525731 0.850651
v 0.000000 0.525731 -0.850651
v 0.000000 -0.525731 -0.850651
v -0.525731 -0.850651 -0.000000
v 0.525731 -0.850651 -0.000000
v 0.525731 0.850651 0.000000
v -0.525731 0.850651 0.000000
vt 0.181818 0.250000
vt 0.363636 0.250000
vt 0.545455 0.250000
vt 0.727273 0.250000
vt 0.909091 0.250000
vt 0.090909 0.416667
vt 0.272727 0.416667
vt 0.454545 0.416667
vt 0.636364 0.416667
vt 0.818182 0.416667
vt 1.000000 0.416667
vt 0.000000 0.583333
vt 0.181818 0.583333
vt 0.363636 0.583333
vt 0.545455 0.583333
vt 0.727273 0.583333
vt 0.909091 0.583333
vt 0.090909 0.750000
vt 0.272727 0.750000
vt 0.454545 0.750000
vt 0.636364 0.750000
vt 0.818182 0.750000
vn 0.850651 0.000000 0.525731
vn 0.525731 -0.850651 0.000000
vn 0.850651 0.000000 -0.525731
vn 0.525731 0.850651 -0.000000
vn 0.000000 -0.525731 -0.850651
vn 0.000000 0.525731 -0.850651
vn 0.000000 -0.525731 0.850651
vn 0.000000 0.525731 0.850651
vn -0.850651 0.000000 -0.525731
vn -0.525731 -0.850651 -0.000000
vn -0.850651 0.000000 0.525731
vn -0.525731 0.850651 0.000000
s 1
g pSolid1
usemtl initialShadingGroup
f 2/17/1 10/22/2 1/16/3
f 1/16/3 11/10/4 2/17/1
f 1/16/3 8/15/5 7/9/6
f 1/16/3 7/9/6 11/10/4
f 1/16/3 10/21/2 8/15/5
f 5/13/7 2/12/1 6/6/8
f 10/18/2 2/12/1 5/13/7
f 2/17/1 11/10/4 6/11/8
f 4/8/9 9/14/10 3/7/11
f 3/7/11 12/2/12 4/8/9
f 5/13/7 6/6/8 3/7/11
f 3/7/11 9/14/10 5/13/7
f 6/6/8 12/1/12 3/7/11
f 7/9/6 8/15/5 4/8/9
f 4/8/9 12/3/12 7/9/6
f 4/8/9 8/15/5 9/14/10
f 5/13/7 9/14/10 10/19/2
f 6/11/8 11/10/4 12/5/12
f 7/9/6 12/4/12 11/10/4
f 8/15/5 10/20/2 9/14/10
g default
v 0.850651 0.000000 -0.525731
v 0.850651 -0.000000 0.525731
v -0.850651 -0.000000 0.525731
v -0.850651 0.000000 -0.525731
v 0.000000 -0.525731 0.850651
v 0.000000 0.525731 0.850651
v 0.000000 0.525731 -0.850651
v 0.000000 -0.525731 -0.850651
v -0.525731 -0.850651 -0.000000
v 0.525731 -0.850651 -0.000000
v 0.525731 0.850651 0.000000
v -0.525731 0.850651 0.000000
vt 0.181818 0.250000
vt 0.363636 0.250000
vt 0.545455 0.250000
vt 0.727273 0.250000
vt 0.909091 0.250000
vt 0.090909 0.416667
vt 0.272727 0.416667
vt 0.454545 0.416667
vt 0.636364 0.416667
vt 0.818182 0.416667
vt 1.000000 0.416667
vt 0.000000 0.583333
vt 0.181818 0.583333
vt 0.363636 0.583333
vt 0.545455 0.583333
vt 0.727273 0.583333
vt 0.909091 0.583333
vt 0.090909 0.750000
vt 0.272727 0.750000
vt 0.454545 0.750000
vt 0.636364 0.750000
vt 0.818182 0.750000
vn 0.850651 0.000000 0.525731
vn 0.525731 -0.850651 0.000000
vn 0.850651 0.000000 -0.525731
vn 0.525731 0.850651 -0.000000
vn 0.000000 -0.525731 -0.850651
vn 0.000000 0.525731 -0.850651
vn 0.000000 -0.525731 0.850651
vn 0.000000 0.525731 0.850651
vn -0.850651 0.000000 -0.525731
vn -0.525731 -0.850651 -0.000000
vn -0.850651 0.000000 0.525731
vn -0.525731 0.850651 0.000000
s 1
g pSolid1
f 14/39/13 22/44/14 13/38/15
f 13/38/15 23/32/16 14/39/13
f 13/38/15 20/37/17 19/31/18
f 13/38/15 19/31/18 23/32/16
f 13/38/15 22/43/14 20/37/17
f 17/35/19 14/34/13 18/28/20
f 22/40/14 14/34/13 17/35/19
f 14/39/13 23/32/16 18/33/20
f 16/30/21 21/36/22 15/29/23
f 15/29/23 24/24/24 16/30/21
f 17/35/19 18/28/20 15/29/23
f 15/29/23 21/36/22 17/35/19
f 18/28/20 24/23/24 15/29/23
f 19/31/18 20/37/17 16/30/21
f 16/30/21 24/25/24 19/31/18
f 16/30/21 20/37/17 21/36/22
f 17/35/19 21/36/22 22/41/14
f 18/33/20 23/32/16 24/27/24
f 19/31/18 24/26/24 23/32/16
f 20/37/17 22/42/14 21/36/22
